<svg xmlns="http://www.w3.org/2000/svg" xmlns:xlink="http://www.w3.org/1999/xlink" width="500" zoomAndPan="magnify" viewBox="0 0 375 374.999991" height="500" preserveAspectRatio="xMidYMid meet" version="1.0"><defs><g/><clipPath id="aa2b5d5209"><path d="M 48.722656 190.675781 L 345.058594 190.675781 L 345.058594 238.085938 L 48.722656 238.085938 Z M 48.722656 190.675781 " clip-rule="nonzero"/></clipPath><clipPath id="ce254dabb8"><path d="M 82.855469 190.675781 L 339.054688 190.675781 C 341.203125 190.675781 343.1875 191.828125 344.253906 193.695312 C 345.316406 195.5625 345.300781 197.859375 344.203125 199.707031 L 326.828125 229.054688 C 323.511719 234.652344 317.484375 238.085938 310.976562 238.085938 L 54.777344 238.085938 C 52.628906 238.085938 50.644531 236.933594 49.578125 235.066406 C 48.515625 233.199219 48.535156 230.902344 49.628906 229.054688 L 67.007812 199.707031 C 70.324219 194.109375 76.347656 190.675781 82.855469 190.675781 Z M 82.855469 190.675781 " clip-rule="nonzero"/></clipPath><clipPath id="78b0a9bb8b"><path d="M 254.894531 113.605469 L 307 113.605469 L 307 203 L 254.894531 203 Z M 254.894531 113.605469 " clip-rule="nonzero"/></clipPath><clipPath id="918116acd2"><path d="M 306 148 L 356 148 L 356 203.78125 L 306 203.78125 Z M 306 148 " clip-rule="nonzero"/></clipPath></defs><g clip-path="url(#aa2b5d5209)"><g clip-path="url(#ce254dabb8)"><path fill="#000000" d="M 44.277344 190.675781 L 349.503906 190.675781 L 349.503906 238.085938 L 44.277344 238.085938 Z M 44.277344 190.675781 " fill-opacity="1" fill-rule="nonzero"/></g></g><g clip-path="url(#78b0a9bb8b)"><path fill="#36a03d" d="M 296.878906 202.523438 C 297.871094 160.574219 279.757812 146.917969 279.757812 146.917969 C 293.699219 156.535156 300.390625 177.476562 301.832031 195.722656 C 326.238281 121.832031 254.917969 113.621094 254.890625 113.621094 C 259.203125 119.574219 258.351562 137.984375 259.25 146.539062 C 260.367188 157.171875 265.953125 167.050781 274.074219 173.648438 C 279.121094 177.75 292.984375 186.816406 296.878906 202.523438 " fill-opacity="1" fill-rule="nonzero"/></g><g clip-path="url(#918116acd2)"><path fill="#7ecb2a" d="M 307.734375 201.507812 C 335.464844 186.480469 340.191406 166.496094 340.191406 166.496094 C 338.851562 183.945312 327.355469 196.007812 315.996094 203.765625 C 375.125 189.273438 349.890625 148.996094 349.890625 148.996094 C 346.679688 154.1875 325.941406 162.308594 320.320312 166.117188 C 302.734375 178.027344 305.390625 194.28125 307.734375 201.507812 " fill-opacity="1" fill-rule="nonzero"/></g><g fill="#000000" fill-opacity="1"><g transform="translate(0.0000045, 228.11414)"><g><path d="M 15.734375 -32.859375 C 20.597656 -32.859375 24.867188 -31.65625 28.546875 -29.25 L 25.4375 -22.796875 C 23.738281 -23.785156 21.910156 -24.597656 19.953125 -25.234375 C 18.003906 -25.867188 16.367188 -26.1875 15.046875 -26.1875 C 12.660156 -26.1875 11.46875 -25.394531 11.46875 -23.8125 C 11.46875 -22.789062 12.054688 -21.96875 13.234375 -21.34375 C 14.410156 -20.726562 15.835938 -20.195312 17.515625 -19.75 C 19.203125 -19.300781 20.890625 -18.757812 22.578125 -18.125 C 24.265625 -17.488281 25.695312 -16.457031 26.875 -15.03125 C 28.050781 -13.613281 28.640625 -11.820312 28.640625 -9.65625 C 28.640625 -6.53125 27.414062 -4.09375 24.96875 -2.34375 C 22.53125 -0.59375 19.421875 0.28125 15.640625 0.28125 C 12.953125 0.28125 10.289062 -0.179688 7.65625 -1.109375 C 5.03125 -2.035156 2.742188 -3.304688 0.796875 -4.921875 L 4 -11.28125 C 5.632812 -9.851562 7.566406 -8.679688 9.796875 -7.765625 C 12.023438 -6.859375 14.003906 -6.40625 15.734375 -6.40625 C 17.066406 -6.40625 18.101562 -6.644531 18.84375 -7.125 C 19.59375 -7.601562 19.96875 -8.304688 19.96875 -9.234375 C 19.96875 -10.128906 19.539062 -10.878906 18.6875 -11.484375 C 17.832031 -12.085938 16.769531 -12.535156 15.5 -12.828125 C 14.238281 -13.128906 12.863281 -13.523438 11.375 -14.015625 C 9.882812 -14.515625 8.503906 -15.054688 7.234375 -15.640625 C 5.972656 -16.234375 4.914062 -17.171875 4.0625 -18.453125 C 3.207031 -19.734375 2.78125 -21.273438 2.78125 -23.078125 C 2.78125 -26.046875 3.960938 -28.414062 6.328125 -30.1875 C 8.703125 -31.96875 11.835938 -32.859375 15.734375 -32.859375 Z M 15.734375 -32.859375 "/></g></g></g><g fill="#000000" fill-opacity="1"><g transform="translate(27.248179, 228.11414)"><g><path d="M 17.40625 0 L 9.1875 0 L -0.234375 -25.015625 L 8.03125 -25.015625 L 13.421875 -7.328125 L 18.84375 -25.015625 L 26.828125 -25.015625 Z M 17.40625 0 "/></g></g></g><g fill="#ffffff" fill-opacity="1"><g transform="translate(69.698856, 230.107533)"><g><path d="M 24.6875 -22.359375 L 9.90625 -22.359375 L 9.90625 -16.8125 L 23.25 -16.8125 L 23.25 -11.21875 L 9.90625 -11.21875 L 9.90625 -5.59375 L 25.125 -5.59375 L 25.125 0 L 2.796875 0 L 2.796875 -27.953125 L 24.6875 -27.953125 Z M 24.6875 -22.359375 "/></g></g></g><g fill="#ffffff" fill-opacity="1"><g transform="translate(94.334526, 230.107533)"><g><path d="M 28.59375 0 L 22.328125 0 L 9.46875 -17.21875 L 9.46875 0 L 2.796875 0 L 2.796875 -27.953125 L 9.0625 -27.953125 L 21.96875 -10.703125 L 21.96875 -27.953125 L 28.59375 -27.953125 Z M 28.59375 0 "/></g></g></g><g fill="#ffffff" fill-opacity="1"><g transform="translate(123.442184, 230.107533)"><g><path d="M 18.171875 0 L 10.828125 0 L -0.046875 -27.953125 L 7.546875 -27.953125 L 14.703125 -7.390625 L 21.84375 -27.953125 L 29.15625 -27.953125 Z M 18.171875 0 "/></g></g></g><g fill="#ffffff" fill-opacity="1"><g transform="translate(150.273921, 230.107533)"><g><path d="M 9.90625 0 L 2.796875 0 L 2.796875 -27.953125 L 9.90625 -27.953125 Z M 9.90625 0 "/></g></g></g><g fill="#ffffff" fill-opacity="1"><g transform="translate(160.695033, 230.107533)"><g><path d="M 19.65625 0 L 15.5 -7.875 L 9.90625 -7.875 L 9.90625 0 L 2.796875 0 L 2.796875 -27.953125 L 15.296875 -27.953125 C 18.992188 -27.953125 21.851562 -27.109375 23.875 -25.421875 C 25.90625 -23.734375 26.921875 -21.332031 26.921875 -18.21875 C 26.921875 -13.894531 25.226562 -10.894531 21.84375 -9.21875 L 27.71875 0 Z M 9.90625 -13.453125 L 15.296875 -13.453125 C 16.835938 -13.453125 18.035156 -13.835938 18.890625 -14.609375 C 19.742188 -15.390625 20.171875 -16.507812 20.171875 -17.96875 C 20.171875 -19.40625 19.742188 -20.492188 18.890625 -21.234375 C 18.035156 -21.984375 16.835938 -22.359375 15.296875 -22.359375 L 9.90625 -22.359375 Z M 9.90625 -13.453125 "/></g></g></g><g fill="#ffffff" fill-opacity="1"><g transform="translate(187.327123, 230.107533)"><g><path d="M 16.0625 -28.203125 C 20.394531 -28.203125 24 -26.847656 26.875 -24.140625 C 29.75 -21.441406 31.1875 -18.066406 31.1875 -14.015625 C 31.1875 -9.941406 29.742188 -6.535156 26.859375 -3.796875 C 23.972656 -1.054688 20.367188 0.3125 16.046875 0.3125 C 11.734375 0.3125 8.140625 -1.050781 5.265625 -3.78125 C 2.390625 -6.507812 0.953125 -9.921875 0.953125 -14.015625 C 0.953125 -18.085938 2.390625 -21.46875 5.265625 -24.15625 C 8.140625 -26.851562 11.738281 -28.203125 16.0625 -28.203125 Z M 16.140625 -22.25 C 13.953125 -22.25 12.085938 -21.457031 10.546875 -19.875 C 9.003906 -18.289062 8.234375 -16.328125 8.234375 -13.984375 C 8.234375 -11.640625 9.007812 -9.660156 10.5625 -8.046875 C 12.125 -6.429688 13.984375 -5.625 16.140625 -5.625 C 18.296875 -5.625 20.125 -6.429688 21.625 -8.046875 C 23.125 -9.660156 23.875 -11.640625 23.875 -13.984375 C 23.875 -16.328125 23.125 -18.289062 21.625 -19.875 C 20.125 -21.457031 18.296875 -22.25 16.140625 -22.25 Z M 16.140625 -22.25 "/></g></g></g><g fill="#ffffff" fill-opacity="1"><g transform="translate(217.193434, 230.107533)"><g><path d="M 24.15625 -22.25 L 15.734375 -22.25 L 15.734375 0 L 8.625 0 L 8.625 -22.25 L 0.28125 -22.25 L 0.28125 -28 L 24.15625 -28 Z M 24.15625 -22.25 "/></g></g></g><g fill="#ffffff" fill-opacity="1"><g transform="translate(239.313612, 230.107533)"><g><path d="M 24.6875 -22.359375 L 9.90625 -22.359375 L 9.90625 -16.8125 L 23.25 -16.8125 L 23.25 -11.21875 L 9.90625 -11.21875 L 9.90625 -5.59375 L 25.125 -5.59375 L 25.125 0 L 2.796875 0 L 2.796875 -27.953125 L 24.6875 -27.953125 Z M 24.6875 -22.359375 "/></g></g></g><g fill="#ffffff" fill-opacity="1"><g transform="translate(263.949274, 230.107533)"><g><path d="M 15.890625 -28.203125 C 17.972656 -28.203125 20.019531 -27.773438 22.03125 -26.921875 C 24.039062 -26.066406 25.75 -24.921875 27.15625 -23.484375 L 23.046875 -18.609375 C 22.140625 -19.722656 21.050781 -20.609375 19.78125 -21.265625 C 18.519531 -21.921875 17.265625 -22.25 16.015625 -22.25 C 13.804688 -22.25 11.957031 -21.46875 10.46875 -19.90625 C 8.976562 -18.351562 8.234375 -16.429688 8.234375 -14.140625 C 8.234375 -11.796875 8.976562 -9.835938 10.46875 -8.265625 C 11.957031 -6.691406 13.804688 -5.90625 16.015625 -5.90625 C 17.179688 -5.90625 18.394531 -6.195312 19.65625 -6.78125 C 20.925781 -7.375 22.054688 -8.175781 23.046875 -9.1875 L 27.203125 -4.796875 C 25.679688 -3.242188 23.890625 -2.003906 21.828125 -1.078125 C 19.765625 -0.148438 17.707031 0.3125 15.65625 0.3125 C 11.445312 0.3125 7.941406 -1.054688 5.140625 -3.796875 C 2.347656 -6.535156 0.953125 -9.957031 0.953125 -14.0625 C 0.953125 -18.082031 2.375 -21.441406 5.21875 -24.140625 C 8.070312 -26.847656 11.628906 -28.203125 15.890625 -28.203125 Z M 15.890625 -28.203125 "/></g></g></g><g fill="#ffffff" fill-opacity="1"><g transform="translate(289.303657, 230.107533)"><g><path d="M 28.59375 0 L 21.484375 0 L 21.484375 -10.859375 L 9.90625 -10.859375 L 9.90625 0 L 2.796875 0 L 2.796875 -27.953125 L 9.90625 -27.953125 L 9.90625 -16.453125 L 21.484375 -16.453125 L 21.484375 -27.953125 L 28.59375 -27.953125 Z M 28.59375 0 "/></g></g></g></svg>