<svg xmlns="http://www.w3.org/2000/svg" xmlns:xlink="http://www.w3.org/1999/xlink" width="500" zoomAndPan="magnify" viewBox="0 0 375 374.999991" height="500" preserveAspectRatio="xMidYMid meet" version="1.0"><defs><g/><clipPath id="0eed87ebde"><path d="M 48.675781 161.804688 L 353.296875 161.804688 L 353.296875 209.386719 L 48.675781 209.386719 Z M 48.675781 161.804688 " clip-rule="nonzero"/></clipPath><clipPath id="1ec0e855af"><path d="M 82.890625 161.804688 L 347.203125 161.804688 C 349.355469 161.804688 351.339844 162.960938 352.402344 164.828125 C 353.46875 166.695312 353.449219 168.992188 352.351562 170.839844 L 334.878906 200.351562 C 331.5625 205.949219 325.535156 209.386719 319.027344 209.386719 L 54.714844 209.386719 C 52.566406 209.386719 50.582031 208.230469 49.515625 206.363281 C 48.449219 204.496094 48.46875 202.199219 49.566406 200.351562 L 67.042969 170.839844 C 70.359375 165.242188 76.382812 161.804688 82.890625 161.804688 Z M 82.890625 161.804688 " clip-rule="nonzero"/></clipPath><clipPath id="91bd904a89"><path d="M 265.152344 75.347656 L 319 75.347656 L 319 167 L 265.152344 167 Z M 265.152344 75.347656 " clip-rule="nonzero"/></clipPath><clipPath id="659ce2961b"><path d="M 317 111 L 369 111 L 369 168.285156 L 317 168.285156 Z M 317 111 " clip-rule="nonzero"/></clipPath></defs><g clip-path="url(#0eed87ebde)"><g clip-path="url(#1ec0e855af)"><path fill="#ffffff" d="M 44.214844 161.804688 L 357.757812 161.804688 L 357.757812 209.386719 L 44.214844 209.386719 Z M 44.214844 161.804688 " fill-opacity="1" fill-rule="nonzero"/></g></g><g clip-path="url(#91bd904a89)"><path fill="#36a03d" d="M 308.425781 166.996094 C 309.445312 123.757812 290.777344 109.679688 290.777344 109.679688 C 305.144531 119.59375 312.042969 141.179688 313.527344 159.984375 C 338.679688 83.824219 265.175781 75.359375 265.148438 75.363281 C 269.59375 81.5 268.714844 100.472656 269.640625 109.289062 C 270.792969 120.25 276.546875 130.429688 284.917969 137.234375 C 290.121094 141.460938 304.410156 150.804688 308.425781 166.996094 " fill-opacity="1" fill-rule="nonzero"/></g><g clip-path="url(#659ce2961b)"><path fill="#7ecb2a" d="M 319.609375 165.949219 C 348.191406 150.457031 353.0625 129.859375 353.0625 129.859375 C 351.683594 147.847656 339.832031 160.277344 328.125 168.273438 C 389.0625 153.335938 363.058594 111.824219 363.058594 111.824219 C 359.75 117.175781 338.375 125.542969 332.582031 129.46875 C 314.457031 141.746094 317.195312 158.5 319.609375 165.949219 " fill-opacity="1" fill-rule="nonzero"/></g><g fill="#ffffff" fill-opacity="1"><g transform="translate(0.0000045, 200.077221)"><g><path d="M 15.421875 -32.21875 C 20.179688 -32.21875 24.367188 -31.035156 27.984375 -28.671875 L 24.9375 -22.34375 C 23.269531 -23.3125 21.476562 -24.101562 19.5625 -24.71875 C 17.65625 -25.34375 16.046875 -25.65625 14.734375 -25.65625 C 12.398438 -25.65625 11.234375 -24.882812 11.234375 -23.34375 C 11.234375 -22.34375 11.8125 -21.535156 12.96875 -20.921875 C 14.125 -20.316406 15.523438 -19.796875 17.171875 -19.359375 C 18.828125 -18.921875 20.476562 -18.390625 22.125 -17.765625 C 23.78125 -17.140625 25.1875 -16.128906 26.34375 -14.734375 C 27.5 -13.347656 28.078125 -11.59375 28.078125 -9.46875 C 28.078125 -6.40625 26.878906 -4.015625 24.484375 -2.296875 C 22.085938 -0.585938 19.035156 0.265625 15.328125 0.265625 C 12.691406 0.265625 10.082031 -0.1875 7.5 -1.09375 C 4.925781 -2 2.6875 -3.242188 0.78125 -4.828125 L 3.90625 -11.0625 C 5.519531 -9.664062 7.414062 -8.519531 9.59375 -7.625 C 11.78125 -6.726562 13.722656 -6.28125 15.421875 -6.28125 C 16.722656 -6.28125 17.738281 -6.515625 18.46875 -6.984375 C 19.195312 -7.453125 19.5625 -8.140625 19.5625 -9.046875 C 19.5625 -9.929688 19.144531 -10.671875 18.3125 -11.265625 C 17.476562 -11.859375 16.4375 -12.296875 15.1875 -12.578125 C 13.945312 -12.867188 12.597656 -13.253906 11.140625 -13.734375 C 9.691406 -14.222656 8.34375 -14.753906 7.09375 -15.328125 C 5.851562 -15.910156 4.816406 -16.828125 3.984375 -18.078125 C 3.148438 -19.335938 2.734375 -20.847656 2.734375 -22.609375 C 2.734375 -25.523438 3.890625 -27.851562 6.203125 -29.59375 C 8.523438 -31.34375 11.597656 -32.21875 15.421875 -32.21875 Z M 15.421875 -32.21875 "/></g></g></g><g fill="#ffffff" fill-opacity="1"><g transform="translate(26.708504, 200.077221)"><g><path d="M 17.0625 0 L 9.015625 0 L -0.234375 -24.53125 L 7.875 -24.53125 L 13.15625 -7.1875 L 18.46875 -24.53125 L 26.296875 -24.53125 Z M 17.0625 0 "/></g></g></g><g fill="#000000" fill-opacity="1"><g transform="translate(75.479721, 201.377463)"><g><path d="M 24.765625 -22.4375 L 9.9375 -22.4375 L 9.9375 -16.859375 L 23.3125 -16.859375 L 23.3125 -11.25 L 9.9375 -11.25 L 9.9375 -5.609375 L 25.203125 -5.609375 L 25.203125 0 L 2.796875 0 L 2.796875 -28.046875 L 24.765625 -28.046875 Z M 24.765625 -22.4375 "/></g></g></g><g fill="#000000" fill-opacity="1"><g transform="translate(100.201813, 201.377463)"><g><path d="M 28.6875 0 L 22.390625 0 L 9.5 -17.265625 L 9.5 0 L 2.796875 0 L 2.796875 -28.046875 L 9.09375 -28.046875 L 22.03125 -10.734375 L 22.03125 -28.046875 L 28.6875 -28.046875 Z M 28.6875 0 "/></g></g></g><g fill="#000000" fill-opacity="1"><g transform="translate(129.411579, 201.377463)"><g><path d="M 18.234375 0 L 10.859375 0 L -0.046875 -28.046875 L 7.578125 -28.046875 L 14.75 -7.40625 L 21.921875 -28.046875 L 29.25 -28.046875 Z M 18.234375 0 "/></g></g></g><g fill="#000000" fill-opacity="1"><g transform="translate(156.337441, 201.377463)"><g><path d="M 9.9375 0 L 2.796875 0 L 2.796875 -28.046875 L 9.9375 -28.046875 Z M 9.9375 0 "/></g></g></g><g fill="#000000" fill-opacity="1"><g transform="translate(166.795111, 201.377463)"><g><path d="M 19.703125 0 L 15.546875 -7.890625 L 9.9375 -7.890625 L 9.9375 0 L 2.796875 0 L 2.796875 -28.046875 L 15.34375 -28.046875 C 19.050781 -28.046875 21.921875 -27.195312 23.953125 -25.5 C 25.984375 -23.800781 27 -21.390625 27 -18.265625 C 27 -13.941406 25.304688 -10.9375 21.921875 -9.25 L 27.796875 0 Z M 9.9375 -13.5 L 15.34375 -13.5 C 16.894531 -13.5 18.097656 -13.882812 18.953125 -14.65625 C 19.804688 -15.4375 20.234375 -16.5625 20.234375 -18.03125 C 20.234375 -19.46875 19.804688 -20.5625 18.953125 -21.3125 C 18.097656 -22.0625 16.894531 -22.4375 15.34375 -22.4375 L 9.9375 -22.4375 Z M 9.9375 -13.5 "/></g></g></g><g fill="#000000" fill-opacity="1"><g transform="translate(193.520624, 201.377463)"><g><path d="M 16.109375 -28.28125 C 20.460938 -28.28125 24.078125 -26.925781 26.953125 -24.21875 C 29.835938 -21.507812 31.28125 -18.125 31.28125 -14.0625 C 31.28125 -9.976562 29.832031 -6.554688 26.9375 -3.796875 C 24.039062 -1.046875 20.425781 0.328125 16.09375 0.328125 C 11.769531 0.328125 8.164062 -1.039062 5.28125 -3.78125 C 2.40625 -6.519531 0.96875 -9.945312 0.96875 -14.0625 C 0.96875 -18.144531 2.40625 -21.535156 5.28125 -24.234375 C 8.164062 -26.929688 11.773438 -28.28125 16.109375 -28.28125 Z M 16.1875 -22.3125 C 14 -22.3125 12.128906 -21.515625 10.578125 -19.921875 C 9.023438 -18.335938 8.25 -16.367188 8.25 -14.015625 C 8.25 -11.671875 9.03125 -9.691406 10.59375 -8.078125 C 12.15625 -6.460938 14.019531 -5.65625 16.1875 -5.65625 C 18.351562 -5.65625 20.1875 -6.460938 21.6875 -8.078125 C 23.195312 -9.691406 23.953125 -11.671875 23.953125 -14.015625 C 23.953125 -16.367188 23.195312 -18.335938 21.6875 -19.921875 C 20.1875 -21.515625 18.351562 -22.3125 16.1875 -22.3125 Z M 16.1875 -22.3125 "/></g></g></g><g fill="#000000" fill-opacity="1"><g transform="translate(223.491706, 201.377463)"><g><path d="M 24.234375 -22.3125 L 15.78125 -22.3125 L 15.78125 0 L 8.65625 0 L 8.65625 -22.3125 L 0.28125 -22.3125 L 0.28125 -28.078125 L 24.234375 -28.078125 Z M 24.234375 -22.3125 "/></g></g></g><g fill="#000000" fill-opacity="1"><g transform="translate(245.689481, 201.377463)"><g><path d="M 24.765625 -22.4375 L 9.9375 -22.4375 L 9.9375 -16.859375 L 23.3125 -16.859375 L 23.3125 -11.25 L 9.9375 -11.25 L 9.9375 -5.609375 L 25.203125 -5.609375 L 25.203125 0 L 2.796875 0 L 2.796875 -28.046875 L 24.765625 -28.046875 Z M 24.765625 -22.4375 "/></g></g></g><g fill="#000000" fill-opacity="1"><g transform="translate(270.411563, 201.377463)"><g><path d="M 15.9375 -28.28125 C 18.019531 -28.28125 20.070312 -27.851562 22.09375 -27 C 24.113281 -26.144531 25.832031 -25 27.25 -23.5625 L 23.109375 -18.671875 C 22.203125 -19.796875 21.113281 -20.679688 19.84375 -21.328125 C 18.582031 -21.984375 17.320312 -22.3125 16.0625 -22.3125 C 13.84375 -22.3125 11.984375 -21.53125 10.484375 -19.96875 C 8.992188 -18.40625 8.25 -16.476562 8.25 -14.1875 C 8.25 -11.832031 8.992188 -9.863281 10.484375 -8.28125 C 11.984375 -6.707031 13.84375 -5.921875 16.0625 -5.921875 C 17.238281 -5.921875 18.460938 -6.210938 19.734375 -6.796875 C 21.003906 -7.390625 22.128906 -8.195312 23.109375 -9.21875 L 27.28125 -4.8125 C 25.757812 -3.257812 23.960938 -2.015625 21.890625 -1.078125 C 19.828125 -0.140625 17.765625 0.328125 15.703125 0.328125 C 11.484375 0.328125 7.972656 -1.046875 5.171875 -3.796875 C 2.367188 -6.554688 0.96875 -9.992188 0.96875 -14.109375 C 0.96875 -18.140625 2.394531 -21.507812 5.25 -24.21875 C 8.101562 -26.925781 11.664062 -28.28125 15.9375 -28.28125 Z M 15.9375 -28.28125 "/></g></g></g><g fill="#000000" fill-opacity="1"><g transform="translate(295.854889, 201.377463)"><g><path d="M 28.6875 0 L 21.546875 0 L 21.546875 -10.890625 L 9.9375 -10.890625 L 9.9375 0 L 2.796875 0 L 2.796875 -28.046875 L 9.9375 -28.046875 L 9.9375 -16.5 L 21.546875 -16.5 L 21.546875 -28.046875 L 28.6875 -28.046875 Z M 28.6875 0 "/></g></g></g></svg>