<svg xmlns="http://www.w3.org/2000/svg" xmlns:xlink="http://www.w3.org/1999/xlink" width="500" zoomAndPan="magnify" viewBox="0 0 375 374.999991" height="500" preserveAspectRatio="xMidYMid meet" version="1.0"><defs><g/><clipPath id="d4a110c893"><path d="M 204.03125 43.285156 L 281 43.285156 L 281 175 L 204.03125 175 Z M 204.03125 43.285156 " clip-rule="nonzero"/></clipPath><clipPath id="fb052e688b"><path d="M 279 95 L 352 95 L 352 176.035156 L 279 176.035156 Z M 279 95 " clip-rule="nonzero"/></clipPath></defs><g fill="#ffffff" fill-opacity="1"><g transform="translate(75.906878, 260.179295)"><g><path d="M 42.703125 -13.972656 C 32.949219 -13.972656 24.515625 -18.847656 23.988281 -29.523438 L 3.953125 -29.523438 C 4.085938 -7.644531 22.144531 2.109375 41.914062 2.109375 C 60.234375 2.109375 79.082031 -5.667969 79.082031 -26.757812 C 79.082031 -60.894531 27.28125 -49.425781 27.28125 -65.375 C 27.28125 -72.097656 35.058594 -74.730469 40.59375 -74.730469 C 50.480469 -74.730469 55.882812 -71.699219 56.9375 -62.34375 L 76.050781 -62.34375 C 75.390625 -82.773438 58.785156 -90.945312 40.332031 -90.945312 C 23.988281 -90.945312 6.855469 -82.246094 6.855469 -63.792969 C 6.855469 -30.710938 58.652344 -41.914062 58.652344 -24.515625 C 58.652344 -16.476562 48.898438 -13.972656 42.703125 -13.972656 Z M 42.703125 -13.972656 "/></g></g></g><g fill="#ffffff" fill-opacity="1"><g transform="translate(158.929456, 260.179295)"><g><path d="M 66.296875 -58.125 L 46.261719 -58.125 L 32.421875 -16.605469 L 18.585938 -58.125 L -1.316406 -58.125 L 20.824219 0 L 44.152344 0 Z M 66.296875 -58.125 "/></g></g></g><g fill="#ffffff" fill-opacity="1"><g transform="translate(223.89791, 260.179295)"><g><path d="M 59.839844 -17.925781 L 27.679688 -17.925781 L 27.679688 -35.980469 L 58.519531 -35.980469 L 58.519531 -53.90625 L 27.679688 -53.90625 L 27.679688 -71.699219 L 59.839844 -71.699219 L 59.839844 -89.625 L 7.90625 -89.625 L 7.90625 0 L 59.839844 0 Z M 59.839844 -17.925781 "/></g></g></g><g clip-path="url(#d4a110c893)"><path fill="#36a03d" d="M 265.839844 174.183594 C 267.296875 112.433594 240.636719 92.328125 240.636719 92.328125 C 261.15625 106.480469 271.007812 137.3125 273.128906 164.171875 C 309.058594 55.398438 204.066406 43.308594 204.027344 43.308594 C 210.375 52.074219 209.121094 79.175781 210.445312 91.765625 C 212.089844 107.421875 220.308594 121.964844 232.265625 131.679688 C 239.695312 137.714844 260.105469 151.0625 265.839844 174.183594 " fill-opacity="1" fill-rule="nonzero"/></g><g clip-path="url(#fb052e688b)"><path fill="#7ecb2a" d="M 281.820312 172.691406 C 322.640625 150.566406 329.597656 121.144531 329.597656 121.144531 C 327.628906 146.839844 310.707031 164.59375 293.980469 176.011719 C 381.023438 154.675781 343.878906 95.386719 343.878906 95.386719 C 339.152344 103.03125 308.621094 114.984375 300.34375 120.589844 C 274.457031 138.125 278.367188 162.050781 281.820312 172.691406 " fill-opacity="1" fill-rule="nonzero"/></g></svg>